# xmcd
#
# Track frame offsets: 
#        150
#        21873
#        45988
#        75935
#        105531
#        129595
#        163109
#        196820
#        228847
#
# Disc length: 3514 seconds
#
# Revision: 2
# Processed by: cddbd v1.5.2PL0 Copyright (c) Steve Scherf et al.
# Submitted via: ExactAudioCopyFreeDBPlugin 1.0
#
DISCID=5e0db809
DTITLE=Various Artist - The Best of Disco Demands
DYEAR=2012
DGENRE=Rhythm and Blues
TTITLE0=Silver, Platinum and Gold - Just Friends (original studio versio
TTITLE0=n)
TTITLE1=The People's Workshop - Funkathone
TTITLE2=The Chocolate City Connection - Take the Music to the Party
TTITLE3=The Universal Robot Band - Disco Boogie Woman
TTITLE4=The Stringfield Family - Sound of Disco Rock
TTITLE5=The Firebolts - Everybody Party (Get Down)
TTITLE6=Living Proof - Theme from "Living Proof"
TTITLE7=Puff - In the Mood
TTITLE8=Cordial - Wave
EXTD=
EXTT0=
EXTT1=
EXTT2=
EXTT3=
EXTT4=
EXTT5=
EXTT6=
EXTT7=
EXTT8=
PLAYORDER=
